<?xml version="1.0" encoding="utf-8"?>
<svg version="1.1" xmlns:xlink="http://www.w3.org/1999/xlink" width="60px" height="47px" xmlns="http://www.w3.org/2000/svg">
  <g transform="matrix(1 0 0 1 -1232 -241 )">
    <path d="M 60 10.3982300884956  C 60 4.67920353982301  55.5 0  50 0  L 10 0  C 4.5 0  0 4.67920353982301  0 10.3982300884956  L 0 15.5973451327434  L 5 15.5973451327434  L 5 10.3982300884956  C 5 7.79867256637168  7 5.19911504424779  10 6  L 50 6  C 52.5 5.19911504424779  55 7.2787610619469  55 10.3982300884956  L 55 36.3938053097345  C 55 39.5132743362832  53 41.5929203539823  50 41.5929203539823  L 45 41.5929203539823  L 45 46.7920353982301  L 50 46.7920353982301  C 55.5 46.7920353982301  60 42.1128318584071  60 36.3938053097345  L 60 10.3982300884956  Z " fill-rule="nonzero" fill="#d7d7d7" stroke="none" transform="matrix(1 0 0 1 1232 241 )" />
  </g>
</svg>