<?xml version="1.0" encoding="utf-8"?>
<svg version="1.1" xmlns:xlink="http://www.w3.org/1999/xlink" width="60px" height="60px" xmlns="http://www.w3.org/2000/svg">
  <g transform="matrix(1 0 0 1 -1212 -261 )">
    <path d="M 60 10.8695652173913  C 60 4.89130434782609  55.5 0  50 0  L 10 0  C 4.5 0  0 4.89130434782609  0 10.8695652173913  L 0 38.0434782608696  C 0 44.0217391304348  4.5 48.9130434782609  10 48.9130434782609  L 10 54.3478260869565  C 10 57.6086956521739  12 59.7826086956522  14.5 59.7826086956522  C 15.5 59.7826086956522  16.5 59.2391304347826  17 58.695652173913  L 30 49  L 50 49  C 55.5 48.9130434782609  60 44.0217391304348  60 38.0434782608696  L 60 10.8695652173913  Z M 55 10.8695652173913  L 55 38.0434782608696  C 55 41.304347826087  53 43.4782608695652  50 43  L 30 43  L 28.5 43.4782608695652  L 27 44.5652173913043  L 15 53.804347826087  L 15 48.9130434782609  L 15 43.4782608695652  L 10 43.4782608695652  C 7 43.4782608695652  5 40.7608695652174  5 38.0434782608696  L 5 10.8695652173913  C 5 8.15217391304348  7 5.43478260869565  10 6  L 50 6  C 52.5 5.43478260869565  55 7.60869565217391  55 10.8695652173913  Z " fill-rule="nonzero" fill="#d7d7d7" stroke="none" transform="matrix(1 0 0 1 1212 261 )" />
  </g>
</svg>