<?xml version="1.0" encoding="utf-8"?>
<svg version="1.1" xmlns:xlink="http://www.w3.org/1999/xlink" width="15px" height="15px" xmlns="http://www.w3.org/2000/svg">
  <g transform="matrix(1 0 0 1 -276 -52 )">
    <path d="M 14.9619512195122 3.82997731140102  C 14.9853658536585 3.04041406693137  14.4234146341463 2.38698241633579  13.7443902439024 2.38698241633579  L 10.2087804878049 2.38698241633579  C 9.97463414634146 1.05289279636982  8.99121951219512 0.0455190017016449  7.79707317073171 0.0455190017016449  L 1.21756097560976 0.0455190017016449  C 0.538536585365854 0.0455190017016446  0 0.69895065229722  0 1.48851389676687  L 0 13.5225467952354  C 0 14.312110039705  0.561951219512195 14.9655416903006  1.21756097560976 15  L 13.7443902439024 15  C 14.4234146341463 14.9655416903006  14.9619512195122 14.312110039705  14.9619512195122 13.5225467952354  L 14.9619512195122 3.82997731140102  Z M 0.866341463414635 2.41420873511061  L 0.866341463414635 1.51574021554169  C 0.866341463414635 1.29792966534316  1.03024390243903 1.10734543391946  1.21756097560976 1.10734543391946  L 7.79707317073171 1.10734543391946  C 8.49951219512195 1.10734543391946  9.10829268292683 1.65187180941577  9.29560975609756 2.41420873511061  L 0.866341463414635 2.41420873511061  Z M 14.1190243902439 13.3047362450369  L 14.0956097560976 13.3047362450369  C 14.0956097560976 13.6314520703347  13.8614634146341 13.9309415768576  13.5804878048781 14  L 1.40487804878049 14  C 1.12390243902439 13.9309415768576  0.889756097560976 13.6586783891095  0.889756097560976 13.3047362450369  L 0.889756097560976 3.42158252977879  L 13.6039024390244 3.42158252977879  C 13.8848780487805 3.42158252977879  14.1190243902439 3.69384571752694  14.1190243902439 4.04778786159955  L 14.1190243902439 13.3047362450369  Z " fill-rule="nonzero" fill="#aaaaaa" stroke="none" transform="matrix(1 0 0 1 276 52 )" />
  </g>
</svg>