<?xml version="1.0" encoding="utf-8"?>
<svg version="1.1" xmlns:xlink="http://www.w3.org/1999/xlink" width="15px" height="15px" xmlns="http://www.w3.org/2000/svg">
  <g transform="matrix(1 0 0 1 -324 -4 )">
    <path d="M 1.875 1  L 1.875 0  L 15 0  L 15 1  L 1.875 1  Z M 8.4375 7.5  L 8.4375 6.5625  L 15 6.5625  L 15 7.5  L 8.4375 7.5  Z M 9.375 15  L 9.375 14.0625  L 15 14.0625  L 15 15  L 9.375 15  Z M 8.4375 10.78125  C 8.4375 8.4375  6.5625 6.5625  4.21875 6.5625  C 1.875 6.5625  0 8.4375  0 10.78125  C 0 13.125  1.875 15  4.21875 15  C 6.5625 15  8.4375 13.125  8.4375 10.78125  Z M 6.75 10.78125  L 2.8125 12.9375  L 2.8125 8.625  L 6.75 10.78125  Z " fill-rule="nonzero" fill="#aaaaaa" stroke="none" transform="matrix(1 0 0 1 324 4 )" />
  </g>
</svg>