<?xml version="1.0" encoding="utf-8"?>
<svg version="1.1" xmlns:xlink="http://www.w3.org/1999/xlink" width="15px" height="15px" xmlns="http://www.w3.org/2000/svg">
  <g transform="matrix(1 0 0 1 -4 -4 )">
    <path d="M 0.00190478070175411 8.55450292397661  C -0.000902236842105263 8.20269005847953  0.00190478070175439 7.85181286549708  0.00190478070175439 7.50093567251462  C 0.00190478070175439 7.1612865497076  0.000969108187134503 6.82070175438596  0.00190478070175439 6.48105263157895  C 0.00564747076023392 5.81204678362573  0.457577295321637 5.36105263157895  1.12377612573099 5.36105263157895  C 1.80775273391813 5.36105263157895  2.49079366959064 5.36105263157895  3.17477027777778 5.36105263157895  C 3.79324980994152 5.36198830409357  4.26108606725146 5.79333333333333  4.27418548245614 6.41181286549708  C 4.29009191520468 7.13602339181287  4.29009191520468 7.86023391812866  4.27418548245614 8.58444444444445  C 4.26108606725146 9.20292397660819  3.79324980994152 9.63801169590643  3.17664162280702 9.63894736842105  C 2.48517963450292 9.63988304093567  1.79465331871345 9.63988304093567  1.10319133040936 9.63894736842105  C 0.471612383040935 9.63894736842105  0.00939016081871318 9.18514619883041  0.00190478070175411 8.55450292397661  Z M 3.20096910818713 6.43426900584795  C 2.49079366959064 6.43426900584795  1.78810361111111 6.43426900584795  1.0769925 6.43426900584795  C 1.0769925 7.15005847953216  1.0769925 7.85368421052632  1.0769925 8.56105263157895  C 1.78810361111111 8.56105263157895  2.4936006871345 8.56105263157895  3.20096910818713 8.56105263157895  C 3.20096910818713 7.8480701754386  3.20096910818713 7.14444444444444  3.20096910818713 6.43426900584795  Z M 0.00190478070175453 13.9009356725146  C -0.000902236842105263 13.5500584795322  0.00190478070175439 13.1982456140351  0.00190478070175439 12.8473684210526  C 0.00190478070175439 12.5039766081871  3.34356725146196E-05 12.159649122807  0.00190478070175439 11.8162573099415  C 0.00564747076023392 11.1575438596491  0.462255657894737 10.7065497076023  1.12284045321637 10.7065497076023  C 1.80307437134503 10.7065497076023  2.48237261695906 10.7065497076023  3.16260653508772 10.7065497076023  C 3.80822057017544 10.7065497076023  4.27137846491228 11.1575438596491  4.2769925 11.8022222222222  C 4.28354220760234 12.4964912280702  4.28260653508772 13.1916959064327  4.2769925 13.8869005847953  C 4.27137846491228 14.5334502923977  3.81009191520468 14.9844444444444  3.16541355263158 14.9844444444444  C 2.47769425438597 14.9844444444444  1.79091062865497 14.9844444444444  1.10319133040936 14.9844444444444  C 0.469741038011696 14.9844444444444  0.0093901608187136 14.532514619883  0.00190478070175453 13.9009356725146  Z M 1.07792817251462 13.9112280701754  C 1.78810361111111 13.9112280701754  2.49079366959064 13.9112280701754  3.20003343567251 13.9112280701754  C 3.20003343567251 13.1991812865497  3.20003343567251 12.4927485380117  3.20003343567251 11.7816374269006  C 2.4889223245614 11.7816374269006  1.78623226608187 11.7816374269006  1.07792817251462 11.7816374269006  C 1.07792817251462 12.4946198830409  1.07792817251462 13.2010526315789  1.07792817251462 13.9112280701754  Z M 14.3438930847953 8.03426900584795  C 13.0386299269006 8.03426900584795  11.7343024415205 8.03426900584795  10.4299749561404 8.03426900584795  C 9.11067671052632 8.03426900584795  7.79137846491228 8.03426900584795  6.47301589181287 8.03426900584795  C 6.19979951754386 8.03426900584795  6.0136006871345 7.92011695906433  5.92377612573099 7.7021052631579  C 5.79371764619883 7.38584795321638  5.98646618421053 7.0340350877193  6.32330828947368 6.97602339181287  C 6.37757729532164 6.96666666666667  6.43371764619883 6.96385964912281  6.4889223245614 6.96385964912281  C 9.11629074561403 6.96292397660819  11.7436591666667 6.96292397660819  14.3700919152047 6.96385964912281  C 14.696641622807 6.96385964912281  14.9099749561404 7.12666666666667  14.9633082894737 7.41391812865497  C 15.0147702777778 7.68994152046784  14.8201503947368 7.97345029239766  14.5422556578947 8.02210526315789  C 14.477694254386 8.03333333333333  14.4103258333333 8.03426900584795  14.3438930847953 8.03426900584795  Z M 6.51137846491228 12.3112280701754  C 7.81851296783626 12.3112280701754  9.12658314327485 12.3112280701754  10.4346533187134 12.3112280701754  C 11.750208874269 12.3112280701754  13.0657644298246 12.3112280701754  14.3813199853801 12.3112280701754  C 14.6723141374269 12.3112280701754  14.8809691081871 12.4534502923977  14.950208874269 12.6948538011696  C 15.0400334356725 13.006432748538  14.8416708625731 13.3189473684211  14.5207351900585 13.3713450292398  C 14.470208874269 13.3797660818713  14.4178112134503 13.3816374269006  14.3663492251462 13.3816374269006  C 11.7389808040936 13.3816374269006  9.11161238304094 13.3825730994152  6.48517963450293 13.3816374269006  C 6.17172934210526 13.3816374269006  5.96213869883041 13.2319298245614  5.89757729532164 12.9643274853801  C 5.82553051169591 12.666783625731  6.03137846491228 12.3626900584795  6.33453635964912 12.3205847953216  C 6.39254805555556 12.3121637426901  6.45243109649123 12.3112280701754  6.51137846491228 12.3112280701754  Z M 14.3541854824561 2.68502923976608  C 13.0461153070175 2.6859649122807  11.7380451315789 2.68502923976608  10.4299749561404 2.68502923976608  C 9.10693402046784 2.68502923976608  7.78389308479532 2.68502923976608  6.46178782163743 2.68502923976608  C 6.18576442982456 2.68502923976608  5.98740185672515 2.5540350877193  5.91067671052632 2.32479532163743  C 5.79839600877193 1.98982456140351  6.02950711988304 1.64736842105263  6.38880536549708 1.61836257309942  C 6.42155390350877 1.61555555555556  6.45523811403509 1.61649122807018  6.4889223245614 1.61649122807018  C 9.11629074561404 1.61649122807018  11.7436591666667 1.61649122807018  14.3700919152047 1.61649122807018  C 14.696641622807 1.61649122807018  14.9090392836257 1.77929824561404  14.9633082894737 2.06654970760234  C 15.0175772953216 2.35567251461988  14.8014369444444 2.64760233918129  14.509507119883 2.67941520467836  C 14.4580451315789 2.68502923976608  14.4065831432749 2.68502923976608  14.3541854824561 2.68502923976608  Z M 1.58319133040936 2.44175438596491  C 1.58786969298246 2.44643274853801  1.59629074561403 2.44736842105263  1.61593986842105 2.45672514619883  C 1.82646618421053 2.24432748538012  2.03418548245614 2.03473684210526  2.24284045321637 1.82514619883041  C 2.78365916666667 1.28432748538012  3.32447788011696 0.743508771929825  3.86529659356725 0.202690058479533  C 4.10482875730994 -0.0359064327485376  4.43512115497076 -0.0480701754385961  4.65406852339181 0.171812865497076  C 4.87020887426901 0.389824561403509  4.85991647660819 0.718245614035088  4.62599834795322 0.953099415204679  C 3.75301589181287 1.82701754385965  2.88096910818713 2.69906432748538  2.00798665204678 3.57111111111111  C 1.76190478070175 3.81719298245614  1.44939016081871 3.81719298245614  1.20330828947368 3.57298245614035  C 0.859916476608187 3.23239766081871  0.51652466374269 2.89087719298246  0.175004195906433 2.54748538011696  C -0.0504928801169591 2.32198830409357  -0.0561069152046784 1.98888888888889  0.159097763157895 1.77555555555556  C 0.376173786549708 1.55847953216374  0.699916476608187 1.56502923976608  0.931027587719298 1.79333333333333  C 1.14997495614035 2.00853801169591  1.36611530701754 2.22561403508772  1.58319133040936 2.44175438596491  Z " fill-rule="nonzero" fill="#aaaaaa" stroke="none" transform="matrix(1 0 0 1 4 4 )" />
  </g>
</svg>