<?xml version="1.0" encoding="utf-8"?>
<svg version="1.1" xmlns:xlink="http://www.w3.org/1999/xlink" width="6px" height="4px" xmlns="http://www.w3.org/2000/svg">
  <g transform="matrix(1 0 0 1 -158 -7 )">
    <path d="M 5.99630408547794 0.551773133680555  C 5.99630408547794 0.267611313657407  5.77308572150735 0.0372098379629625  5.50595553308823 0.037209837962963  L 0.551239590992647 0.0372098379629635  C 0.280427563406207 0.0372098379629635  0.0608910386029407 0.267587672633057  0.0608910386029407 0.551773133680556  C 0.0608910386029407 0.835958594728056  0.280427563406207 1.06633642939815  0.551239590992647 1.06633642939815  L 5.50595553308824 1.06633642939815  C 5.77674503216912 1.06633642939815  5.99630408547794 0.835934953703704  5.99630408547794 0.551773133680555  Z M 2.69559966452206 2.955628515625  L 0.551239590992647 2.955628515625  C 0.280427584072853 2.955628515625  0.0608910592695873 3.18600635029509  0.0608910592695873 3.47019181134259  C 0.0608910592695873 3.75437727239009  0.280427584072853 3.98475510706019  0.551239611659293 3.98475510706019  L 2.69559966452206 3.98475510706019  C 2.9664116921085 3.98475510706019  3.18594821691176 3.75437727239009  3.18594821691176 3.47019181134259  C 3.18594821691176 3.18600635029509  2.9664116921085 2.955628515625  2.69559966452206 2.955628515625  Z " fill-rule="nonzero" fill="#348fe4" stroke="none" transform="matrix(1 0 0 1 158 7 )" />
  </g>
</svg>