<?xml version="1.0" encoding="utf-8"?>
<svg version="1.1" xmlns:xlink="http://www.w3.org/1999/xlink" width="7px" height="8px" xmlns="http://www.w3.org/2000/svg">
  <g transform="matrix(1 0 0 1 -163 -11 )">
    <path d="M 6.94630823102679 6.00851002475248  C 6.94260535714286 5.55683188428218  6.59453455636161 5.18727704207921  6.16500037667411 5.18727704207921  L 5.48737317243304 5.18727704207921  L 4.17655336216518 3.26969803527228  C 4.75049988839286 2.99458499381188  5.12449086216518 2.39097874381188  5.12449084821429 1.72578004331683  C 5.12449084821429 0.78546828589109  4.39502332589286 0.017615454826734  3.49892615792411 0.017615454826734  C 2.60282898995536 0.017615454826734  1.87706435546875 0.781362113242574  1.87706435546875 1.72578004331683  C 1.87706435546875 2.39097875928218  2.25105531529018 2.99458499381188  2.82500185546875 3.26969803527228  L 1.51418203125 5.18727704207921  L 0.836554840959821 5.18727704207921  C 0.407020661272322 5.18727704207921  0.0589498604910708 5.55683188428218  0.0589498604910708 6.00851002475248  L 0.0589498604910708 7.13770536819307  C 0.0589498604910708 7.58938350866337  0.407020661272321 7.95893835086634  0.836554840959821 7.95893835086634  L 6.16500037667411 7.95893835086634  C 6.59453455636161 7.95893835086634  6.94630823102679 7.58938350866337  6.94630823102679 7.13770536819307  L 6.94630823102679 6.00851002475248  Z M 3.49152039620536 2.58807467512376  C 3.03976893136161 2.57986234529703  2.66948084542411 2.1938828434406  2.669480859375 1.72578004331683  C 2.669480859375 1.24946491336634  3.04347181919643 0.863485411509901  3.49892615792411 0.863485411509901  C 3.95438049665179 0.863485411509901  4.32837147042411 1.24946491336634  4.32837147042411 1.72578004331683  C 4.32837147042411 2.19388284344059  3.95808338448661 2.58396850247525  3.49152039620536 2.58807467512376  Z M 2.491742578125 5.18727704207921  L 3.48411463448661 3.69263302908416  L 4.50240687779018 5.18727704207921  L 2.491742578125 5.18727704207921  Z M 0.836554840959823 6.03725318688119  L 6.15018885323661 6.01261619740099  L 6.15018885323661 7.11717455136139  L 0.851366364397323 7.14181154084158  L 0.836554840959823 6.03725318688119  Z " fill-rule="nonzero" fill="#348fe4" stroke="none" transform="matrix(1 0 0 1 163 11 )" />
  </g>
</svg>