<?xml version="1.0" encoding="utf-8"?>
<svg version="1.1" xmlns:xlink="http://www.w3.org/1999/xlink" width="13px" height="15px" xmlns="http://www.w3.org/2000/svg">
  <g transform="matrix(1 0 0 1 -155 -4 )">
    <path d="M 12.9311662210983 1.83514773925781  C 12.9311662210983 0.824261264648438  12.0897347046604 0  11.053527388909 0  L 1.93022830563584 0  C 0.909603040326951 0  0.0720670475072254 0.812597197265625  0 1.81181958984375  L 0 13.1881804101562  C 0.0720670475072254 14.1874028027344  0.909603040326951 15  1.93022830563584 15  L 5.6192822005961 15  C 5.93481901192196 15  6.19192308638909 14.7433903564453  6.19192310106575 14.4284603466797  C 6.19192311574241 14.1135303369141  5.93481902659863 13.8569206933594  5.6192822005961 13.8569206787109  L 1.92243727307623 13.8569206787109  C 1.73934801526373 13.8569206787109  1.56404977533418 13.7869362304687  1.43160222182081 13.6586314160156  C 1.29915466830744 13.5264385693359  1.22513986632948 13.3514774560547  1.22513986632948 13.1648522607422  L 1.22513986632948 1.83514773925781  C 1.22513986632948 1.45412129882813  1.54067667765535 1.14696733886719  1.93022830563584 1.14696733886719  L 11.0574229125271 1.14696733886719  C 11.4469745405076 1.14696733886719  11.7625113518335 1.45412129882813  11.7625113518335 1.83514773925781  L 11.7625113518335 5.49766718261719  C 11.7625113518335 5.81259719238281  12.0196154263006 6.0692068359375  12.3351522376264 6.0692068359375  C 12.6623756051301 6.0692068359375  12.9311662210983 5.800933125  12.9311662210983 5.47433903320313  L 12.9311662210983 1.83514773925781  Z " fill-rule="nonzero" fill="#348fe4" stroke="none" transform="matrix(1 0 0 1 155 4 )" />
  </g>
</svg>