<?xml version="1.0" encoding="utf-8"?>
<svg version="1.1" xmlns:xlink="http://www.w3.org/1999/xlink" width="10px" height="8px" xmlns="http://www.w3.org/2000/svg">
  <g transform="matrix(1 0 0 1 -303 -106 )">
    <path d="M 1.16543210358796 3.93744856376263  C 1.04514386510338 3.79359510943527  0.874901619472385 3.71162751357082  0.696414044805569 3.71162751357082  C 0.345800354139175 3.71162751357082  0.0615717994351983 4.02169502779334  0.0615717994351983 4.4041826903385  C 0.0615717994351983 4.59904393004071  0.136822261362667 4.78488936055454  0.268861458333333 4.91612421085859  L 2.88175583043981 7.76655443497475  C 3.12966175962551 8.03691627150313  3.53151794234208 8.03691627150313  3.77942387152778 7.76655443497475  L 9.75582990451389 1.24743734217172  C 9.88233924355945 1.11655041818558  9.95398696395074 0.934701766225609  9.95398696395074 0.74449609103144  C 9.95398696395074 0.361677842131767  9.66951274882174 0.0513423347183079  9.3185960206637 0.0513423347183079  C 9.14343149777775 0.0513423347183079  8.97603702424745 0.130228444972823  8.85596707175926 0.269360274621213  L 3.32949246238426 6.29764310290404  L 1.16598080150463 3.93744856376263  Z " fill-rule="nonzero" fill="#ffffff" stroke="none" transform="matrix(1 0 0 1 303 106 )" />
  </g>
</svg>