<?xml version="1.0" encoding="utf-8"?>
<svg version="1.1" xmlns:xlink="http://www.w3.org/1999/xlink" width="15px" height="15px" xmlns="http://www.w3.org/2000/svg">
  <g transform="matrix(1 0 0 1 -646 -199 )">
    <path d="M 14.922112341834 14.7176339285714  C 14.9221321203768 11.7026041666085  12.8601661393641 9.13723958339146  9.99115901904915 8.17481398803711  C 11.4098694620871 7.42520461303711  12.3714992088608 6.00191592250279  12.3714992088608 4.37008928571429  C 12.3714992088608 1.96192336303711  10.2807950948749 0.00286458339146074  7.71083860765674 0.00286458339146074  C 5.14090189879599 0.00286458339146074  3.05047468366792 1.96194196428571  3.0504746834825 4.37008928571429  C 3.0504746834825 5.93989955357143  3.94133702525465 7.31478794642857  5.27163765816604 8.08444940482003  C 2.26449762645866 8.97334449410575  0.0777096518369262 11.6098028274972  0.0777096518369262 14.7176339285714  C 0.0777096518369262 14.8117373512486  0.0887856011422071 14.9028459821429  0.0927808543685716 14.99616815482  L 1.12830300626731 14.99616815482  C 1.1237539556962 14.9034226191057  1.11325158227848 14.8117559524972  1.11325158227848 14.7176339285714  C 1.11325158227848 11.4200148808943  3.97826344936709 8.73731398803711  7.49992088601414 8.73731398803711  C 11.0215585443038 8.73731398803711  13.8865901897498 11.4200334821429  13.8865901899352 14.7176339285714  C 13.8865901899352 14.8117373512486  13.8760680379747 14.9034226191057  13.8712420885458 14.99616815482  L 14.9070806962025 14.99616815482  C 14.9110363923433 14.9028645833915  14.922112341834 14.8117559524972  14.922112341834 14.7176339285714  Z M 4.08603639246687 4.37008928571429  C 4.08603639246687 2.49899553571429  5.71200553803649 0.976785714285714  7.71085838601414 0.976785714285714  C 9.70977056962025 0.976785714285714  11.3357001581042 2.49901413696289  11.3357001582897 4.37008928571429  C 11.3357001582897 6.24118303571428  9.70977056962025 7.76337425589425  7.71085838601414 7.76337425589425  C 5.71200553785107 7.76337425589425  4.08605617082427 6.24118303571429  4.08605617082427 4.37008928571429  Z " fill-rule="nonzero" fill="#d7d7d7" stroke="none" transform="matrix(1 0 0 1 646 199 )" />
  </g>
</svg>