<?xml version="1.0" encoding="utf-8"?>
<svg version="1.1" xmlns:xlink="http://www.w3.org/1999/xlink" width="15px" height="11px" xmlns="http://www.w3.org/2000/svg">
  <g>
    <path d="M 13.7762172248069 3.59007406770833  C 14.4438202247191 2.62859259895833  14.8155430729898 1.844740734375  14.8539325787834 1.7583703671875  C 14.9296844481515 1.57375867346037  14.9704056220615 1.35256995770294  14.9704056220615 1.1257136829775  C 14.9704056220615 0.524500591794144  14.6903739845503 0.0371210840191665  14.34493745361 0.0371210840191665  C 14.1667101027515 0.0371210840191665  13.9969474433597 0.169453299397087  13.8782771517293 0.400888898437499  C 13.8558052471032 0.4514074296875  11.5234082305565 5.42503703385417  7.5 5.42503703385417  C 3.50093633690309 5.42503703385417  1.14325842147999 0.448148135416665  1.12078651685393 0.400888898437499  C 1.00213535297642 0.159792368081169  0.828856180354564 0.021019065488467  0.646462355595041 0.021019065488467  C 0.301542946216932 0.021019065488467  0.0219305185602799 0.507668961801112  0.0219305185602799 1.1079820316343  C 0.0219305185602799 1.34240385711646  0.0654746898339181 1.57054408352523  0.146067421216643 1.7583703671875  C 0.185393258426966 1.8431111015625  0.543071168363764 2.5976296328125  1.18352060656601 3.53303703385417  L 0.0889513035463482 5.855259265625  L 1.05337078651685 7.23392593229167  L 2.18820224170471 4.82696296614583  C 2.65823969123069 5.35985186458333  3.20692883163624 5.88296296614584  3.82958802229635 6.3311111015625  L 3.20131085959445 9.35733333333333  L 4.37546816845154 10.0955555651042  L 5.01310861240344 7.02533333333333  C 5.62257226198944 7.30817152624177  6.24679164335802 7.48396397002834  6.87640449438202 7.55007406770833  L 6.87640449438202 10.8565925989583  L 8.12453183703476 10.8565925989583  L 8.12453183703476 7.55007406770833  C 8.76549259767037 7.48156276498469  9.40078584914232 7.29973775798761  10.0205992527651 7.00740740104167  L 10.6647940001756 10.0743703671875  L 11.8370786461991 9.328  L 11.2022471964975 6.30829629947917  C 11.7470284007508 5.91139064590514  12.2705989932427 5.43150072085896  12.7668539325843 4.87422223177083  L 13.8941947528968 7.29585186458333  L 14.8632958764923 5.92696296614583  L 13.7762172248069 3.59007406770833  Z " fill-rule="nonzero" fill="#d7d7d7" stroke="none" />
  </g>
</svg>