<?xml version="1.0" encoding="utf-8"?>
<svg version="1.1" xmlns:xlink="http://www.w3.org/1999/xlink" width="7px" height="7px" xmlns="http://www.w3.org/2000/svg">
  <g transform="matrix(1 0 0 1 -4 -2 )">
    <path d="M 3.52256264697038 6.93462239810258  C 3.52022694803797 6.93462239810258  3.51789124970346 6.93462006027232  3.51555555555556 6.93461538461538  C 1.59974112336474 6.93461538461538  0.0466666666666662 5.39860768018872  0.0466666666666662 3.50384615384615  C 0.0466666666666662 1.60908462750359  1.59974112336474 0.0730769230769222  3.51555555555556 0.0730769230769222  C 5.43136998774637 0.0730769230769222  6.98444444444444 1.60908462750359  6.98444444444444 3.50384615384615  C 6.98444917205312 3.5061561810254  6.98445153585927 3.50846621234525  6.98445153585927 3.51077624425642  C 6.98445153585927 5.40171426079247  5.43451108591239 6.93462239810258  3.52256264697038 6.93462239810258  Z M 3.52334552426749 1.02691101995523  C 3.5207488632606 1.02691101995523  3.51815220384363 1.02691503894943  3.51555555555556 1.02692307692308  C 2.13668463014467 1.02692307692308  1.01888888888889 2.13243534849473  1.01888888888889 3.49615384615385  C 1.01888888888889 4.85987234381296  2.13668463014467 5.96538461538461  3.51555555555556 5.96538461538461  C 4.89442648096643 5.96538461538461  6.01222222222222 4.85987234381296  6.01222222222222 3.49615384615385  C 6.01223034950668 3.49358573246258  6.01223441315638 3.49101760776401  6.01223441315638 3.48844948149369  C 6.01223441315638 2.12897932806404  4.89792090162413 1.02691101995523  3.52334552426749 1.02691101995523  Z " fill-rule="nonzero" fill="#d7d7d7" stroke="none" transform="matrix(1 0 0 1 4 2 )" />
  </g>
</svg>