<?xml version="1.0" encoding="utf-8"?>
<svg version="1.1" xmlns:xlink="http://www.w3.org/1999/xlink" width="15px" height="11px" xmlns="http://www.w3.org/2000/svg">
  <g>
    <path d="M 14.835 6.07307692307692  C 12.7125 9.29615384615384  10.245 10.9423076923077  7.515 10.9423076923077  L 7.02 10.9423076923077  L 7.02 10.9115384615385  C 4.4925 10.7192307692308  2.19 9.08846153846154  0.194999999999999 6.03461538461538  C -0.0225707571391257 5.70751011773929  -0.0225707571391263 5.27710526687609  0.194999999999999 4.95  C 2.3325 1.70384615384615  4.785 0.0653846153846136  7.515 0.0653846153846136  C 10.245 0.0653846153846136  12.7125 1.71153846153846  14.835 4.98846153846154  C 15.0525707571391 5.31556680533763  15.0525707571391 5.74597165620083  14.835 6.07307692307692  Z M 7.515 1.07692307692308  C 5.1375 1.07692307692308  2.97 2.56538461538462  1.035 5.49615384615385  C 2.9625 8.43461538461539  5.145 9.91153846153846  7.515 9.91153846153846  L 7.86 9.91153846153846  C 10.1025 9.77307692307692  12.1575 8.29615384615385  14.0025 5.50384615384615  C 12.0675 2.56538461538462  9.8925 1.07692307692308  7.515 1.07692307692308  Z " fill-rule="nonzero" fill="#d7d7d7" stroke="none" />
  </g>
</svg>