<?xml version="1.0" encoding="utf-8"?>
<svg version="1.1" xmlns:xlink="http://www.w3.org/1999/xlink" width="16px" height="16px" xmlns="http://www.w3.org/2000/svg">
  <g transform="matrix(1 0 0 1 -646 -270 )">
    <path d="M 2.69578313841303 6.37525773699259  L 12.3343373493976 6.37525773699259  C 13.0602409697383 6.37525773699259  13.64879517484 6.8788659894491  13.64879517484 7.5  L 13.64879517484 12.7484536082474  C 13.64879517484 13.3696316075966  13.0602923606852 13.8731958712548  12.3343373493976 13.8731958712548  L 2.69578313841303 13.8731958712548  C 1.96982810947673 13.8731958712548  1.38132529532191 13.3696316075966  1.38132529532191 12.7484536082474  L 1.38132529532191 7.5  C 1.38132529532191 6.87886597434762  1.96987951807229 6.37525773699259  2.69578313841303 6.37525773699259  Z M 14.9632530179311 7.5  C 14.9632530179311 6.25764399296135  13.7862473817199 5.2505154588837  12.3343373493976 5.2505154588837  L 2.69578313841303 5.2505154588837  C 1.24387310609074 5.2505154588837  0.0668674698795183 6.25764399296135  0.0668674698795179 7.5  L 0.0668674698795183 12.7484536082474  C 0.0672001241312208 13.9906083053983  1.24410833374897 14.9974227079917  2.69578313841303 14.9974226753785  L 12.3343373493976 14.9974226753785  C 13.7860121540616 14.9974227079917  14.9629203636794 13.9906083053983  14.9632530179311 12.7484536082474  L 14.9632530179311 7.5  Z M 7.51566265648532 1.12731958762887  L 7.51506023508095 1.12680412874517  C 9.20851172921471 1.12680412874517  10.5813253603795 2.30147971005108  10.5813253603795 3.75051547398518  L 10.5813253012048 5.25103093286888  L 4.44939759036145 5.25103093286888  L 4.44939759036145 3.75103093286888  C 4.44939759036145 2.30199516893478  5.82221122152619 1.12731958762887  7.51566265648532 1.12731958762887  Z M 7.51506023508095 0.00206185063627576  L 7.51566265648532 0.00257732462145716  C 5.09615873871802 0.00257729671302252  3.13467000958 1.68073378568847  3.13433734351468 3.75103093286888  L 3.13433734351468 6.37525773699259  L 11.8969879518072 6.37525773699259  L 11.8969879518072 3.75154639175258  C 11.8969879932287 1.68053243896043  9.93540184256093 0.00206181519320248  7.51566269790674 0.00206181519320248  Z M 7.51566236249105 11.8113402061856  C 7.1530175601283 11.8113402061856  6.85903586234986 11.5597888565402  6.85903586234986 11.2494845411164  L 6.85903613869541 8.9994845411163  C 6.85903613869541 8.68918022152235  7.15301784042465 8.4376288684963  7.51566264766096 8.4376288684963  C 7.87830745489726 8.4376288684963  8.1722891566265 8.68918022152235  8.1722891566265 8.9994845411163  L 8.1722891566265 11.2489690671311  C 8.1722891566265 11.5592733976564  7.87830745884806 11.8108247473019  7.51566265648532 11.8108247473019  Z " fill-rule="nonzero" fill="#d7d7d7" stroke="none" transform="matrix(1 0 0 1 646 270 )" />
  </g>
</svg>