<?xml version="1.0" encoding="utf-8"?>
<svg version="1.1" xmlns:xlink="http://www.w3.org/1999/xlink" width="32px" height="32px" xmlns="http://www.w3.org/2000/svg">
  <g transform="matrix(1 0 0 1 -38 -62 )">
    <path d="M 17.8064 0.820696517412935  C 16.8287489363372 -0.0617192294517045  15.3376510636628 -0.0617192294517058  14.36 0.820696517412935  L 0.424 13.9876616915423  C 0.159031979816191 14.2299120331674  0.00822582257407122 14.5715694052679  0.00822582257407122 14.9296146956131  C 0.00822582257407122 15.6360995457449  0.583808548191603 16.2088186757126  1.29382582257407 16.2088186757126  C 1.60761362802432 16.2088186757126  1.91056736117515 16.0946269507113  2.1456 15.8877611940299  L 3 15.678407960199  L 3 29.4208955223881  C 2.3671986724742 29.4219568817422  2.36719800871111 29.4230182418147  2.36719800871111 29.4240796019908  C 2.36719800871111 30.8370493022544  3.51836345994618 31.9824875621898  4.93839800871111 31.9824875621898  L 12.4208 31.9824875621891  L 12.4208 24.2801990049751  C 12.4207989393037 24.2794029266533  12.4207984089554 24.2786068477177  12.4207984089554 24.2778107686962  C 12.4207984089554 23.2829288671105  13.2313420978617 22.4764177338704  14.2311984089554 22.4764177338704  L 17.7528 22.4764179104478  C 18.7534579021383 22.4764177338704  19.5640015910446 23.2829288671105  19.5640015910446 24.2778107686962  C 19.5640015910446 24.2786068477181  19.5640010606963 24.2794029266529  19.564 24.2801990049751  L 19.564 31.9824875621891  L 27.224 31.9824875621891  C 28.6448365402095 31.9824876866427  29.7960019914446 30.8370494267073  29.7960019914446 29.4240797264437  C 29.7960019914446 29.423018324785  29.7960013276296 29.4219569232247  29.796 29.4208955223881  L 29.796 15.846368159204  C 30.3672 16.3605970149254  31.1776 16.321592039801  31.6528 15.7946268656716  C 31.8661497624282 15.5595404118076  31.9842562833179 15.2540526264279  31.9842562833179 14.9373004015759  C 31.9842562833179 14.5752805550837  31.8300953137299 14.2302126561427  31.56 13.9876616915423  L 17.8064 0.821492537313433  Z " fill-rule="nonzero" fill="#ffffff" stroke="none" fill-opacity="0.996078431372549" transform="matrix(1 0 0 1 38 62 )" />
  </g>
</svg>