<?xml version="1.0" encoding="utf-8"?>
<svg version="1.1" xmlns:xlink="http://www.w3.org/1999/xlink" width="32px" height="32px" xmlns="http://www.w3.org/2000/svg">
  <g transform="matrix(1 0 0 1 -37 -155 )">
    <path d="M 4.19166666666667 8.16  L 4.27666666666667 8.16  L 27.1416666666667 8.16  C 27.4816666666667 8.16  27.8216666666667 8.3232  28.0766666666667 8.4864  C 28.3316666666667 8.7312  28.4166666666667 8.976  28 9.384  L 28 19.9104  L 25.8666666666667 17.952  L 25.8666666666667 11  L 5.46666666666667 11  L 5.46666666666667 19.992  L 2.91666666666667 18.6864  L 2.91666666666667 9.384  C 2.91666666666667 8.7312  3.51166666666667 8.16  4.19166666666667 8.16  Z M 24.1666666666667 19.9104  C 24.5066666666667 20.3184  30.6266666666667 25.2144  31.1366666666667 25.5408  C 31.6466666666667 25.8672  31.1366666666667 26.3568  31.1366666666667 26.3568  L 25.8666666666667 31.4976  C 25.8666666666667 31.4976  25.3566666666667 32.1504  24.4216666666667 31.4976  C 23.9966666666667 31.1712  22.1266666666667 29.7024  22.1266666666667 29.7024  C 22.1266666666667 29.7024  21.5316666666667 29.2128  20.5966666666667 29  L 8.86666666666667 29  C 8.86666666666667 29.1312  8.35666666666666 29.2944  7.93166666666666 28.968  C 7.50666666666667 28.6416  1.81166666666667 24.072  0.196666666666665 22.7664  C -0.143333333333335 22.3584  0.196666666666665 21.7056  0.196666666666665 21.7056  C 0.196666666666665 21.7056  1.30166666666667 19.8288  4.27666666666666 21.7056  C 6.06166666666666 22.9296  8.86666666666667 24.8064  8.86666666666667 24.8064  L 15.6666666666667 24.8064  L 17.6216666666667 23.5824  C 17.6216666666667 23.5824  18.1316666666667 23.256  17.6216666666667 23.256  C 16.0916666666667 23.1744  13.9666666666667 23.0112  13.1166666666667 22.848  C 12.1906717260041 22.7141144460214  11.5048555726488 21.9517756481864  11.5016666666667 21.0528  C 11.5016666666667 19.7472  13.1166666666667 19.584  13.1166666666667 19  L 23.3166666666667 19  C 23.3166666666667 19.584  23.7416666666667 19.584  24.1666666666667 19.9104  Z M 4.61666666666667 5.304  C 4.61666666666667 4.6512  5.21166666666667 4.08  5.89166666666667 4  L 25.4416666666667 4  C 26.1216666666667 4.08  26.7166666666667 4.6512  26.7166666666667 5.304  C 26.7166666666667 5.9568  26.1216666666667 6.528  25.4416666666667 7  L 5.89166666666667 7  C 5.21166666666667 6.528  4.61666666666667 5.9568  4.61666666666667 5.304  Z M 7.16666666666667 1.224  C 7.16666666666667 0.5712  7.76166666666667 0  8.44166666666667 0  L 22.8916666666667 0  C 23.5716666666667 0  24.1666666666667 0.5712  24.1666666666667 1.224  C 24.1666666666667 1.8768  23.5716666666667 2.448  22.8916666666667 3  L 8.44166666666667 3  C 7.76166666666667 2.448  7.16666666666667 1.8768  7.16666666666667 1.224  Z M 10.5666666666667 15.096  C 10.5666666666667 15.7488  9.97166666666667 16.32  9.29166666666667 16.32  C 8.61166666666666 16.32  8.01666666666667 15.7488  8.01666666666667 15.096  C 8.01666666666667 14.4432  8.61166666666667 13.872  9.29166666666667 13.872  C 9.97166666666667 13.872  10.5666666666667 14.4432  10.5666666666667 15.096  Z M 12.2666666666667 15.096  C 12.2666666666667 14.4432  12.8616666666667 13.872  13.5416666666667 13.872  L 22.0416666666667 13.872  C 22.7216666666667 13.872  23.3166666666667 14.4432  23.3166666666667 15.096  C 23.3166666666667 15.7488  22.7216666666667 16.32  22.0416666666667 16.32  L 13.5416666666667 16.32  C 12.8616666666667 16.32  12.2666666666667 15.7488  12.2666666666667 15.096  Z " fill-rule="nonzero" fill="#ffffff" stroke="none" fill-opacity="0.996078431372549" transform="matrix(1 0 0 1 37 155 )" />
  </g>
</svg>