<?xml version="1.0" encoding="utf-8"?>
<svg version="1.1" xmlns:xlink="http://www.w3.org/1999/xlink" width="32px" height="32px" xmlns="http://www.w3.org/2000/svg">
  <g transform="matrix(1 0 0 1 -36 -238 )">
    <path d="M 9.85848004694836 25.1542085427136  C 4.43529929577465 25.1542085427136  0.0228873239436624 20.2927763819095  0.0228873239436624 14.3177135678392  C 0.0228873239436624 8.34299623115578  4.43529929577465 3.48156407035176  9.85848004694836 3.48156407035176  C 12.8583626760563 3.48156407035176  15.6792546948357 5.0081972361809  17.5300176056338 7.54513190954774  L 22.1527875586854 7.54513190954774  L 22.1527875586854 10.6565012562814  C 22.7185471579486 10.8428478358117  23.2643366375458 11.0926315619146  23.781073943662 11.4016959798995  L 25.7788732394366 9.20037688442211  L 29.2566607981221 13.0316268844221  L 27.2588615023474 15.2329459798995  C 27.540187825091 15.8049712690008  27.7664868354519 16.4061109708185  27.9342723004695 17.0271042713568  L 30.7583626760563 17.0271042713568  L 30.7583626760563 22.4451633165829  L 27.9342723004695 22.4451633165829  C 27.765884077922 23.0660364304656  27.5393843115679 23.6671349054871  27.2582159624413 24.2393216080402  L 29.256015258216 26.4402952261306  L 25.7782276995305 30.2718592964824  L 23.7804284037559 28.070540201005  C 23.263743882708 28.3797195598379  22.7179427877185 28.6295086017926  22.1521420187793 28.8157349246231  L 22.1521420187793 31.927135678392  L 17.2343603286385 31.927135678392  L 17.2343603286385 28.816425879397  C 16.6687025005804 28.6297956277986  16.1229413371296 28.3800353876029  15.606073943662 28.0712625628141  L 13.6082746478873 30.2725816582915  L 10.1304870892019 26.4409547738693  L 11.4266725352113 25.0135364321608  C 10.9083838804338 25.1059773992129  10.38391402684 25.1530135951743  9.85848004694835 25.1541771356784  Z M 17.9912852112676 11.8344849246231  C 17.2243842681421 12.034887350453  16.4935016295858 12.3689422370659  15.8279049295775 12.8232726130653  L 15.4142899061033 13.105182160804  L 13.6082453051643 11.1153266331658  L 11.8693955399061 13.0312814070352  L 13.6753814553991 15.0211369346734  L 13.4196596244131 15.4768530150754  C 13.0057276408043 16.2162137019384  12.7028494066529 17.0205695055733  12.5220950704225 17.8605213567839  L 12.4102112676056 18.3819409547739  L 9.85783450704226 18.3819409547739  L 9.85783450704226 21.0909861809045  L 12.4102112676056 21.0909861809045  L 12.5214495305164 21.6117148241206  C 12.7020383164169 22.4515644745282  13.0048227663463 23.2558175937422  13.418720657277 23.9950376884422  L 13.6744424882629 24.4510992462311  L 11.8683978873239 26.4406407035176  L 13.6073063380282 28.3565954773869  L 15.4136443661972 26.3670540201005  L 15.8272593896714 26.6486494974874  C 16.4931877110985 27.10229984245  17.2239639972843 27.4362955108884  17.9906396713615 27.6374057788945  L 18.4637323943662 27.7605841708543  L 18.4637323943662 30.5729585427136  L 20.9227699530516 30.5729585427136  L 20.9227699530516 27.7605841708543  L 21.3955399061033 27.6380967336683  C 22.1621418483655 27.4370739572001  22.8928248140444 27.1030711079407  23.5585974178404 26.6493404522613  L 23.9725352112676 26.3677449748744  L 25.7785798122066 28.3576319095477  L 27.5174295774648 26.4416457286432  L 25.7114436619718 24.451790201005  L 25.9671361502347 23.9957286432161  C 26.381047229943 23.256476741902  26.683934468226 22.4522399005485  26.8647300469484 21.6124057788945  L 26.9765845070423 21.0909861809045  L 29.5289906103286 21.0909861809045  L 29.5289906103286 18.3819409547739  L 26.9765845070423 18.3819409547739  L 26.8653755868545 17.8619032663317  C 26.6847181065884 17.0219138912469  26.3818234285316 16.2175407135776  25.9677816901408 15.4782349246231  L 25.7120598591549 15.0225188442211  L 27.5181044600939 13.0326633165829  L 25.7791960093897 11.1166771356784  L 23.9731807511737 13.1065640703518  L 23.5592429577465 12.8249685929648  C 22.893686401881 12.3707995971473  22.1629338275219 12.0367649290299  21.3961854460094 11.8362123115578  L 20.9227699530516 11.713033919598  L 20.9227699530516 8.9  L 18.4634096244131 8.9  L 18.4634096244131 11.7126884422111  L 17.9909624413146 11.8344849246231  Z M 10.4722124413146 4.86174623115578  L 10.4722124413146 7.59064070351759  C 12.4201291079812 7.80719221105528  14.1721244131455 9.03442211055276  15.1678403755869 10.9196293969849  L 15.6057511737089 11.4016959798995  C 16.1224356947568 11.0925166210666  16.6682367897463 10.8427275791119  17.2340375586854 10.6565012562814  L 17.2340375586854 9.43954145728643  C 15.787617370892 6.79139447236181  13.250264084507 5.08310301507538  10.4721830985916 4.86174623115578  Z M 12.8567781690141 10.027324120603  C 12.0097124413146 9.31020728643216  10.9602992957746 8.89965452261307  9.8575117370892 8.89965452261307  C 7.14595070422535 8.89965452261307  4.93973004694836 11.330527638191  4.93973004694836 14.3177135678392  C 4.93973004694836 16.8238693467337  6.48456572769953 18.9550251256281  8.6281396713615 19.5599246231156  L 8.6281396713615 17.0264133165829  L 11.4515845070423 17.0264133165829  C 11.6199748087835 16.4055409723127  11.8464744921954 15.8044427174081  12.1276408450704 15.2322550251256  L 10.1298415492958 13.0309359296482  L 12.856455399061 10.027324120603  Z M 9.2431338028169 4.87066582914573  C 4.98861502347418 5.20389447236181  1.58568075117371 8.95301507537688  1.28295187793427 13.6406407035176  L 3.74198943661972 13.6406407035176  C 4.03095657276995 10.4457600502513  6.34328051643193 7.89855527638191  9.2431631455399 7.57971105527638  L 9.2431631455399 4.87066582914573  Z M 3.74266431924883 14.9951319095477  L 1.28295187793427 14.9951319095477  C 1.60035211267606 19.9075376884422  5.32009976525822 23.7996859296482  9.85783450704225 23.7996859296482  C 10.5265551643192 23.7996859296482  11.1843603286385 23.7097047738693  11.8274941314554 23.54375  C 11.6818117831226 23.1861119550478  11.5564944555965 22.8193604896113  11.4522300469484 22.4455087939699  L 8.62846244131456 22.4455087939699  L 8.62846244131456 20.954459798995  C 5.98943661971831 20.3659861809045  4.00827464788733 17.946074120603  3.74263497652582 14.9951319095477  Z M 19.6931044600939 25.1542085427136  C 16.9818368544601 25.1542085427136  14.7756161971831 22.7236494974874  14.7756161971831 19.7361180904523  C 14.7756161971831 16.7485866834171  16.9818368544601 14.3177135678392  19.6933978873239 14.3177135678392  C 22.4049589201878 14.3177135678392  24.6112089201878 16.7486180904523  24.6112089201878 19.7361180904523  C 24.6112089201878 20.788567839196  24.3369424882629 21.8094849246231  23.8174882629108 22.6884108040201  L 22.787265258216 21.9487123115578  C 23.1773618026111 21.2863994441079  23.3835629136371 20.5190580683616  23.3818368544601 19.7361180904523  C 23.3818368544601 17.4951319095477  21.7273180751174 15.6725816582915  19.6931044600939 15.6725816582915  C 17.6594776995305 15.6725816582915  16.0053110328639 17.4951319095477  16.0053110328639 19.7361180904523  C 16.0053110328639 21.9771042713568  17.6594776995305 23.7996859296482  19.693720657277 23.7996859296482  C 20.6254988262911 23.7996859296482  21.5144366197183 23.4164886934673  22.1978286384977 22.7195665829146  L 23.0334213615023 23.7131281407035  C 22.1217723004695 24.6423680904523  20.9358861502347 25.1542085427136  19.693720657277 25.1542085427136  Z M 23.3821596244131 0.0140389447236181  L 31.987734741784 0.0140389447236181  L 31.987734741784 1.36853015075377  L 23.381514084507 1.36853015075377  L 23.381514084507 0.0136934673366834  Z M 23.3821596244131 2.7230527638191  L 29.5289906103286 2.7230527638191  L 29.5289906103286 4.07757537688442  L 23.3821596244131 4.07757537688442  L 23.3821596244131 2.72270728643216  Z M 30.7586854460094 2.7230527638191  L 31.987734741784 2.7230527638191  L 31.987734741784 4.07757537688442  L 30.7583626760563 4.07757537688442  L 30.7583626760563 2.72270728643216  Z " fill-rule="nonzero" fill="#ffffff" stroke="none" fill-opacity="0.996078431372549" transform="matrix(1 0 0 1 36 238 )" />
  </g>
</svg>