<?xml version="1.0" encoding="utf-8"?>
<svg version="1.1" xmlns:xlink="http://www.w3.org/1999/xlink" width="32px" height="32px" xmlns="http://www.w3.org/2000/svg">
  <g transform="matrix(1 0 0 1 -36 -323 )">
    <path d="M 18.0486564102564 0.0626560000000005  C 14.7674584615385 0.0626560000000005  12.1076184615385 2.656  12.1076184615385 5.855168  C 12.1076184615385 9.054336  14.7674584615385 11.64768  18.0486564102564 11.64768  C 21.3297887179487 11.64768  23.98976 9.054336  23.98976 5.855168  C 23.98976 2.656064  21.32992 0.0626560000000005  18.0486564102564 0.0626560000000005  Z M 5.03611076923077 6.776704  C 2.27912205128205 6.776704  0.044110769230769 8.95584  0.0441107692307693 11.643968  C 0.0441107692307693 14.332096  2.27912205128205 16.511104  5.03611076923077 16.511104  C 7.79316512820513 16.511104  10.0281764102564 14.332096  10.0281764102564 11.643968  C 10.0281764102564 8.95584  7.79316512820513 6.776704  5.03611076923077 6.776704  Z M 8.54678974358974 19.16288  C 6.1520082051282 19.162944  4.21060923076923 21.055808  4.21060923076923 23.390656  C 4.20969025641026 25.725632  6.15036717948718 27.619136  8.54521435897436 27.620096  C 10.9399958974359 27.620992  12.8821169230769 25.728768  12.8829702564103 23.39392  L 12.8829702564103 23.390656  C 12.8829702564103 21.055872  10.9416369230769 19.16288  8.54678974358974 19.16288  Z M 18.0486564102564 24.89152  C 16.0458174358974 24.89152  14.4222523076923 26.474432  14.4222523076923 28.4272  C 14.4222523076923 30.379904  16.0458174358974 31.96288  18.0486564102564 31.96288  C 20.0514953846154 31.96288  21.6749948717949 30.379904  21.6749948717949 28.4272  C 21.6749948717949 26.474432  20.0514953846154 24.89152  18.0486564102564 24.89152  Z M 26.1654974358974 21.355904  C 24.6208328205128 21.355904  23.368598974359 22.576768  23.368598974359 24.082816  C 23.368598974359 25.588928  24.6208328205128 26.809856  26.1654974358974 26.809856  C 27.7101620512821 26.809856  28.9623302564103 25.588928  28.9623302564103 24.082816  C 28.9623302564103 22.576768  27.7101620512821 21.355904  26.1654974358974 21.355904  Z M 29.7878974358974 15.465536  C 28.6267733333333 15.465536  27.685481025641 16.383296  27.685481025641 17.515456  C 27.685481025641 18.647616  28.6267733333333 19.565376  29.7878974358974 19.565376  C 30.9490871794872 19.565376  31.8903794871795 18.647616  31.8903794871795 17.515456  C 31.8903794871795 16.383424  30.9490871794872 15.465536  29.7878974358974 15.465536  Z M 26.1154133333333 10.859776  L 26.1154133333333 10.861568  C 26.1148225641026 11.628096  26.7517374358974 12.24992  27.5380512820513 12.250432  C 28.3242994871795 12.250944  28.9619364102564 11.629952  28.9624615384615 10.863424  L 28.9624615384615 10.861632  C 28.9630523076923 10.095104  28.3262030769231 9.47328  27.5398892307692 9.472768  C 26.7535753846154 9.472256  26.1160041025641 10.093248  26.1154133333333 10.859776  Z " fill-rule="nonzero" fill="#ffffff" stroke="none" fill-opacity="0.996078431372549" transform="matrix(1 0 0 1 36 323 )" />
  </g>
</svg>