<?xml version="1.0" encoding="utf-8"?>
<svg version="1.1" xmlns:xlink="http://www.w3.org/1999/xlink" width="33px" height="33px" xmlns="http://www.w3.org/2000/svg">
  <g transform="matrix(1 0 0 1 -36 -411 )">
    <path d="M 20.4472535315985 31.8180178755042  C 20.0918714347631 31.1332735759993  20.0001628157028 30.3285270138183  20.191443866171 29.5732784940283  L 20.0300639405204 29.5008589733449  L 19.8051063197026 29.3615676659021  C 18.7889873605948 28.9029328482164  18.0712401486989 27.8272039863956  18.0712401486989 26.5989954915764  L 18.0712401486989 25.3831448232223  C 18.0712401486989 24.5267341611959  18.4019003717472 23.7563299849719  18.9319434944238 23.2120541010836  C 18.9319434944238 23.2120541010836  19.293112267658 22.8070363046745  19.4315405204461 22.6941880882702  C 19.6361695167286 22.5417084552717  20.1974706319703 22.4152400537847  20.1974706319703 22.4152400537847  C 19.8919791821561 21.2398513011152  20.2967717472119 19.951215692478  21.225580669145 19.2276516649529  C 19.651162994918 18.1766513302647  17.8300476310387 17.6193047567111  15.9713338289963 17.6196061061457  L 10.0752832713755 17.6196061061457  C 4.59607881040892 17.6196061061457  0.138614126394052 22.3752432175908  0.138614126394052 28.2125887843075  L 0.138614126394052 28.8437016530887  C 0.138614126394052 31.8980447678557  4.52609962825279 31.8980447678557  10.0752832713755 31.8980447678557  L 15.9717085501859 31.8980447678557  C 17.5611197026022 31.8980447678557  19.0888267657993 31.8980447678557  20.4472535315985 31.8180178755042  Z M 12.7304327137546 16.808839674128  C 17.0682988847584 16.808839674128  20.5966111524164 13.043290358301  20.5966111524164 8.41455350786997  C 20.5966111524164 3.7858166574389  17.0682676579926 0.0198687020485653  12.7304639405204 0.0198687020485653  C 8.39109888475837 0.0198687020485653  4.85679107806692 3.7858166574389  4.85679107806692 8.41455350786997  C 4.85679107806692 13.043290358301  8.39109888475836 16.8088064541644  12.7304639405204 16.8088064541644  Z M 31.8661323420074 25.360754567745  C 31.9022617100372 24.8424899153682  31.5083985130111 24.4230546547497  31.0415271375465 24.3838550976825  C 30.2365011152416 24.323394763901  29.6195226765799 23.625443328324  29.6195226765799 22.7886324448311  C 29.6195226765799 22.5293174088428  29.6752 22.2903994305149  29.7869293680297 22.0706825911572  C 29.9930884758364 21.6120477734715  29.8426066914498 21.0337546468401  29.4129888475836 20.7744396108519  L 28.9074275092937 20.4554615202088  L 28.4206022304833 20.1569137071898  C 27.9910156133829 19.8975654512378  27.4669680297398 20.0372553982441  27.1863330855019 20.4554615202088  C 26.9241219330855 20.8940646998339  26.4557828996282 21.1730127343194  25.9313293680297 21.1730127343194  C 25.4088431226766 21.1730127343194  24.9404728624535 20.8940646998339  24.6782617100372 20.4554615202088  C 24.3976267657993 20.0372221782805  23.8735791821561 19.8979640908012  23.4424936802974 20.1569137071898  L 22.9199449814126 20.4554615202088  L 22.433150929368 20.7552052519181  C 22.0020342007435 21.0141548683066  21.853082527881 21.5924479949379  22.0592416356877 22.0510828126236  C 22.1709710037175 22.2707664320177  22.2266171003717 22.5096844103456  22.2266171003717 22.7686340267342  C 22.2266171003717 23.625875187851  21.6096698884758 24.3037949853674  20.804643866171 24.3642553191489  L 20.804643866171 24.3838550976825  C 20.3178185873606 24.4234532943131  19.9439092936803 24.8424899153682  19.9439092936803 25.3803543462786  L 19.9439092936803 26.5969690737958  C 19.9439092936803 27.1148350866092  20.336273605948 27.5538701257613  20.804643866171 27.5934683223919  L 20.8234423791821 27.6134999604524  C 21.6096698884758 27.6538954362098  22.2270230483271 28.35104959266  22.2270230483271 29.2090880329036  C 22.2270230483271 29.4680376492921  22.1713457249071 29.7073542671834  22.0596163568773 29.9266392470142  C 21.8534572490706 30.3853072846635  22.0020342007435 30.9636004112948  22.4335256505576 31.2229154472831  L 23.4247881040892 31.8404413509452  C 23.8559048327138 32.0997563869335  24.398750929368 31.9600996598908  24.6609620817844 31.5410630388357  C 24.9231732342007 31.102858498774  25.3900133828996 30.8231131851618  25.9140609665427 30.8231131851618  C 26.4381085501859 30.8231131851618  26.9064475836431 31.1224582773076  27.1686587360595 31.5410630388357  C 27.4492936802974 31.9600996598909  27.9736847583643 32.1201866645575  28.4033026022305 31.8404413509452  L 29.3956892193308 31.2229154472831  C 29.8065085501859 30.9636004112948  29.9757888475836 30.404907063197  29.7692550185874 29.9466708850747  C 29.7692550185874 29.9466708850747  29.7692550185874 29.9270711065412  29.7508312267658 29.9270711065412  C 29.7324074349442 29.9070394684806  29.7324074349442 29.8866424108202  29.7135776951673 29.8666107727596  L 29.6951539033457 29.8466123546627  C 29.620093563946 29.6504117956197  29.5816362011029 29.4405483540211  29.5819256505576 29.2287210314008  C 29.5819256505576 28.371479870284  30.2007464684015 27.6935268528039  30.9854750929368 27.633099738986  L 31.0038988847584 27.6134999604524  C 31.4943818061583 27.5774344139571  31.8729053566248 27.1399531204825  31.8661323420074 26.6169674918927  L 31.8661323420074 25.360754567745  Z M 28.2524460966543 25.9990761686309  C 28.2514994435056 26.2855786799311  28.2007452722262 26.5694234292596  28.1027449814126 26.8362856916871  C 28.0094394052045 27.1152337261726  27.8589576208178 27.3741501225975  27.6919256505576 27.5934683223918  C 27.3537397769517 28.012504943447  26.8684758364312 28.331051174563  26.3252237918216 28.4311097049751  C 26.1887722190919 28.4540202538166  26.0510391386495 28.467248858525  25.912936802974 28.4707079016056  C 25.7824089219331 28.4707079016056  25.6322706319703 28.4511081230721  25.5017427509294 28.4311097049751  C 24.9588966542751 28.3314498141264  24.4717278810409 28.0128703630467  24.1354156133829 27.5934683223918  C 23.9477115241636 27.3741501225975  23.8175271375465 27.1152337261726  23.7227539033457 26.8362856916871  C 23.6253480573862 26.5692674970882  23.5748500671091 26.2854940005277  23.5737710037175 25.9990761686309  C 23.5737710037175 25.699731076485  23.6298230483271 25.4211816815629  23.7042988847584 25.1606375069208  C 23.7987286245353 24.8816894724353  23.9292565055762 24.6227730760104  24.1166171003717 24.4034548762161  C 24.4533040892193 23.964851696591  24.9400669144981 23.6663038835719  25.5013680297398 23.5662453531598  C 25.6318959107807 23.5466455746263  25.7635791821561 23.5266139365657  25.9125620817844 23.5266139365657  C 26.0630126394052 23.5266139365657  26.1931970260223 23.5462137150993  26.3252237918216 23.5662453531598  C 26.8680698884758 23.6662706636083  27.3533650557621 23.9844514751246  27.7099747211896 24.4034548762161  C 27.8773814126394 24.6227730760104  28.027863197026 24.8816894724353  28.1207940520446 25.1606375069208  C 28.2155985130111 25.4207498220359  28.2524460966543 25.6993324369216  28.2524460966543 25.9990761686309  Z " fill-rule="nonzero" fill="#ffffff" stroke="none" fill-opacity="0.996078431372549" transform="matrix(1 0 0 1 36 411 )" />
  </g>
</svg>