<?xml version="1.0" encoding="utf-8"?>
<svg version="1.1" xmlns:xlink="http://www.w3.org/1999/xlink" width="26px" height="27px" xmlns="http://www.w3.org/2000/svg">
  <g transform="matrix(1 0 0 1 -39 -498 )">
    <path d="M 3.17352941176471 17.7594827586207  L 3.17352941176471 25.4637931034483  C 3.17352941176471 26.2158049675498  3.67424624669659 26.8254310344828  4.29191176470588 26.8254310344828  C 4.90957728271517 26.8254310344828  5.41029411764706 26.2158049675498  5.41029411764706 25.4637931034483  L 5.41029411764706 17.7594827586207  C 5.41029411764706 17.0074708945192  4.90957728271517 16.3978448275862  4.29191176470588 16.3978448275862  C 3.67424624669659 16.3978448275862  3.17352941176471 17.0074708945192  3.17352941176471 17.7594827586207  Z M 1.85441176470588 10.4741379310345  L 1.75882352941177 10.3112068965517  L 10.1323529411765 3.18879310344827  L 15.1029411764706 9.79913793103448  C 15.1819702774806 9.89276448948799  15.2722137003382 9.97124446503104  15.3705882352941 10.0318965517241  L 15.5235294117647 10.0318965517241  L 15.8676470588235 10.4741379310345  L 16.25 10.4741379310345  C 16.3583318935178 10.4396378348643  16.4615475386965 10.3846590769135  16.5558823529412 10.3112068965517  L 25.35 2.83965517241379  C 25.6688220948398 2.57958260258329  25.8601569172109 2.14310092564691  25.8601569172109 1.67586206896552  C 25.8601569172109 0.90218800750925  25.345016603854 0.275001259947517  24.7095588235294 0.275001259947517  C 24.4814988452609 0.275001259947517  24.258583030181 0.357516474080727  24.0691176470588 0.512068965517242  L 15.9441176470588 7.49482758620689  L 11.1455882352941 0.512068965517239  C 10.7705732326819 0.0284570728874403  10.1621279376737 -0.0505601198011499  9.71176470588235 0.325862068965515  C 9.61113467230174 0.355293660704902  9.51454151419115 0.40233478492003  9.425 0.465517241379309  L 0.573529411764706 8.14655172413793  C 0.25470731692486 8.40662429396843  0.0633724945538416 8.84310597090481  0.0633724945538416 9.31034482758621  C 0.0633724945538416 10.0840188890425  0.578512807910646 10.7112056366042  1.21397058823529 10.7112056366042  C 1.4420305665038 10.7112056366042  1.66494638158369 10.628690422471  1.85441176470588 10.4741379310345  Z M 9.29117647058823 12.5224137931034  L 9.29117647058823 25.4637931034483  C 9.29117647058823 26.2158049675498  9.79189330552012 26.8254310344828  10.4095588235294 26.8254310344828  C 11.0272243415387 26.8254310344828  11.5279411764706 26.2158049675498  11.5279411764706 25.4637931034483  C 11.5279411764706 25.4637931034483  11.5279411764706 25.4637931034483  12 25.4637931034483  L 12 12.5224137931034  C 11.5279411764706 12.5224137931034  11.5279411764706 12.5224137931034  11.5279411764706 12.5224137931034  C 11.5279411764706 11.7704019290019  11.0272243415387 11.160775862069  10.4095588235294 11.160775862069  C 9.79189330552012 11.160775862069  9.29117647058823 11.7704019290019  9.29117647058823 12.5224137931034  Z M 21.4691176470588 12.5224137931034  C 21.4691176470588 12.5224137931034  21.4691176470588 12.5224137931034  21 12.5224137931034  L 21 25.4637931034483  C 21.4691176470588 26.2158049675498  21.9698344819907 26.8254310344828  22.5875 26.8254310344828  C 23.2051655180093 26.8254310344828  23.7058823529412 26.2158049675498  23.7058823529412 25.4637931034483  L 23.7058823529412 12.5224137931034  C 23.7058823529412 11.7704019290019  23.2051655180093 11.160775862069  22.5875 11.160775862069  C 21.9698344819907 11.160775862069  21.4691176470588 11.7704019290019  21.4691176470588 12.5224137931034  Z M 15.4088235294118 17.7594827586207  L 15.4088235294118 25.4637931034483  C 15.4088235294118 26.2158049675498  15.9095403643436 26.8254310344828  16.5272058823529 26.8254310344828  C 17.1448714003622 26.8254310344828  17.6455882352941 26.2158049675498  17.6455882352941 25.4637931034483  L 17.6455882352941 17.7594827586207  C 17.6455882352941 17.0074708945192  17.1448714003622 16.3978448275862  16.5272058823529 16.3978448275862  C 15.9095403643436 16.3978448275862  15.4088235294118 17.0074708945192  15.4088235294118 17.7594827586207  Z " fill-rule="nonzero" fill="#ffffff" stroke="none" fill-opacity="0.996078431372549" transform="matrix(1 0 0 1 39 498 )" />
  </g>
</svg>