<?xml version="1.0" encoding="utf-8"?>
<svg version="1.1" xmlns:xlink="http://www.w3.org/1999/xlink" width="32px" height="32px" xmlns="http://www.w3.org/2000/svg">
  <g transform="matrix(1 0 0 1 -35 -498 )">
    <path d="M 30.8346820809249 29.3183098591549  L 30.8346820809249 29  L 2.20115606936416 29  L 2.20115606936416 1.53239436619718  C 2.20115606936416 0.804311935434335  1.71669193738916 0.214084507042251  1.11907514450867 0.214084507042251  C 0.521458351628182 0.214084507042251  0.0369942196531791 0.804311935434335  0.0369942196531791 1.53239436619718  C 0.0369942196531791 1.53239436619718  0.0369942196531791 1.53239436619718  0 1.53239436619718  L 0 30.6478873239437  C 0.0468847652088249 31.3646963343163  0.521463124434033 31.9428798283019  1.10982658959538 32  L 30.8346820809249 32  L 30.8346820809249 31.9549295774648  C 31.4322988738053 31.9549295774648  31.9167630057803 31.3647021490727  31.9167630057803 30.6366197183099  C 31.9167630057803 29.908537287547  31.4322988738053 29.3183098591549  30.8346820809249 29.3183098591549  Z " fill-rule="nonzero" fill="#ffffff" stroke="none" fill-opacity="0.996078431372549" transform="matrix(1 0 0 1 35 498 )" />
  </g>
</svg>