<?xml version="1.0" encoding="utf-8"?>
<svg version="1.1" xmlns:xlink="http://www.w3.org/1999/xlink" width="20px" height="20px" xmlns="http://www.w3.org/2000/svg">
  <g transform="matrix(1 0 0 1 -86 74 )">
    <path d="M 10 20  C 4.47715250169207 20  0 15.5228474983079  0 10  C 0 4.47715250169207  4.47715250169207 0  10 0  C 15.5228474983079 0  20 4.47715250169207  20 10  C 20 15.5228474983079  15.5228474983079 20  10 20  Z M 10 18.6676953125  C 14.7870359372736 18.6676953125  18.6676953125 14.7870359372736  18.6676953125 10  C 18.6676953125 5.2129640627264  14.7870359372736 1.3323046875  10 1.3323046875  C 5.2129640627264 1.3323046875  1.3323046875 5.2129640627264  1.3323046875 10  C 1.3323046875 14.7870359372736  5.2129640627264 18.6676953125  10 18.6676953125  Z M 10.2569140625 5.1123046875  L 10.25845703125 5.1123046875  C 11.16923828125 5.1123046875  11.90923828125 5.3523046875  12.4769140625 5.86615234375  C 13.04615234375 6.3630859375  13.33076171875 7.04615234375  13.33076171875 7.9  C 13.33076171875 8.595390625  13.14615234375 9.17845703125  12.79076171875 9.63384765625  C 12.6630859375 9.79076171875  12.2630859375 10.16  11.595390625 10.7430859375  C 11.3493062977169 10.9471137944175  11.1463724468125 11.1981600257706  10.99845703125 11.48154296875  C 10.8428019359362 11.7700722776268  10.7638734545581 12.0937489947165  10.76923828125 12.42154296875  L 10.76923828125 12.6630859375  L 9.24615234375 12.6630859375  L 9.24615234375 12.42154296875  C 9.24615234375 11.89537109375  9.33076171875 11.44  9.52923828125 11.07076171875  C 9.71384765625 10.67384765625  10.255390625 10.08923828125  11.1369140625 9.30767578125  L 11.37845703125 9.03845703125  C 11.635390625 8.70923828125  11.775390625 8.37076171875  11.775390625 8  C 11.775390625 7.50154296875  11.6323046875 7.11845703125  11.3615234375 6.835390625  C 11.07845703125 6.55076171875  10.66615234375 6.40921875  10.1523046875 6.40921875  C 9.5123046875 6.40921875  9.0430859375 6.6076953125  8.76 7.02  C 8.5030859375 7.36154296875  8.375390625 7.846171875  8.375390625 8.47078125  L 6.8830859375 8.47078125  C 6.8830859375 7.4323046875  7.1815234375 6.6230859375  7.7769140625 6.024609375  C 8.38 5.41076171875  9.20615234375 5.1123046875  10.2569140625 5.1123046875  Z M 9.26767578125 13.71232421875  C 9.46435645945503 13.5214482917166  9.73075955575992 13.4196628358227  10.004609375 13.43076171875  C 10.3030859375 13.43076171875  10.55845703125 13.515390625  10.75845703125 13.71384765625  C 10.95845703125 13.89845703125  11.05845703125 14.14  11.05845703125 14.44  C 11.0609841293507 14.7187604467207  10.9479196516492 14.9861130359575  10.74615234375 15.1784765625  C 10.5454726663033 15.3641559412378  10.2810499022765 15.4655121728971  10.00767578125 15.46154296875  C 10.0020430755 15.461636164333  9.99640969519288 15.4616827645159  9.99077621851478 15.4616827645159  C 9.42659361557729 15.4616827645159  8.96923324976479 15.0043223987034  8.96923324976479 14.4401397957659  C 8.96923324976479 14.4390710597863  8.96923492692859 14.4380023244657  8.96923828125 14.43693359375  C 8.96923828125 14.13845703125  9.06923828125 13.89845703125  9.26767578125 13.71232421875  Z " fill-rule="nonzero" fill="#ffffff" stroke="none" transform="matrix(1 0 0 1 86 -74 )" />
  </g>
</svg>