<?xml version="1.0" encoding="utf-8"?>
<svg version="1.1" xmlns:xlink="http://www.w3.org/1999/xlink" width="21px" height="21px" xmlns="http://www.w3.org/2000/svg">
  <g transform="matrix(1 0 0 1 -4 107 )">
    <path d="M 3.59438535391566 8.50034230025773  L 16.4457831325301 8.50034230025773  C 17.4136389307229 8.50034230025773  18.1983951430723 9.17181459407217  18.1983951430723 10  L 18.1983951430723 16.9979461984536  C 18.1983951430723 17.8261842759876  17.4137240183228 18.4976038981959  16.4457831325301 18.4976038981959  L 3.59438535391566 18.4976038981959  C 2.62642093633845 18.4976038983311  1.84174981158901 17.8261842761228  1.84174981158901 16.9979461985888  L 1.84174981174699 10  C 1.84174981174699 9.17183472938144  2.62650602409638 8.50034230025773  3.59438535391566 8.50034230025773  Z M 19.9510071536145 10  C 19.9510071536145 8.34352384493204  18.3816649041156 7.00068460051546  16.4457831325301 7  L 3.59438535391566 7  C 1.65850358233021 7.00068460051546  0.0891613328313252 8.34352384493204  0.0891613328313252 10  L 0.0891613328313252 16.9979461984536  C 0.0896161228140957 18.6541471303693  1.65882517523477 19.9965569078319  3.59438535391566 20  L 16.4457831325301 20  C 18.381343311211 19.9965569078319  19.9505523636317 18.6541471303693  19.9510071536145 16.9979461984536  L 19.9510071536145 10  Z M 10.0208725527108 1.50310083762887  L 10.0200724774096 1.50239610180412  C 12.2780121300283 1.50239610180412  14.1084338132255 3.06863321216873  14.1084338132255 5.00068460051546  L 14.1084337349398 7.00136920103093  L 5.93253482680723 7.00136920103093  L 5.93253482680723 5.00136920103093  C 5.9325478228225 3.06933353930698  7.76295135768406 1.50311195793059  10.0208725527108 1.50310083762887  Z M 10.0200724774096 0.00275853737113403  L 10.0208725527108 0.00342300257731959  C 6.79487183562727 0.00343409600416989  4.17956456627811 2.24097686073322  4.17912274096385 5.00136920103093  L 4.17912274096385 8.50034230025773  L 15.8626458960843 8.50034230025773  L 15.8626458960843 5.00205380154639  C 15.8626459477044 2.2407217291484  13.2471949338441 0.0027584904844591  10.0208726043309 0.0027584904844591  Z M 10.0208721653133 15.7484495811856  C 9.53735008988377 15.7484495811856  9.1453780011567 15.4130507836151  9.1453780011567 14.9993153994846  L 9.14537838855422 11.9993355347938  C 9.14537838855422 11.5856001506634  9.53735047728128 11.2502013530928  10.0208725527108 11.2502013530928  C 10.5043946281404 11.2502013530928  10.8963667168675 11.5856001506634  10.8963667168675 11.9993355347938  L 10.8963667168675 14.9986509342783  C 10.8963667168675 15.4123863184088  10.5043946281404 15.7477851159794  10.0208725527108 15.7477851159794  Z " fill-rule="nonzero" fill="#ffffff" stroke="none" transform="matrix(1 0 0 1 4 -107 )" />
  </g>
</svg>