<?xml version="1.0" encoding="utf-8"?>
<svg version="1.1" xmlns:xlink="http://www.w3.org/1999/xlink" width="20px" height="20px" xmlns="http://www.w3.org/2000/svg">
  <g transform="matrix(1 0 0 1 -126 -2 )">
    <path d="M 10.1971890869141 9.9806320703125  L 10.195887898763 9.9806320703125  C 9.77502060577254 9.98830226233812  9.42702407525336 9.66763336283051  9.41777748616536 9.26362546875  L 9.41777748616536 0.7207540234375  C 9.41777748616536 0.32352736328125  9.76649586995443 0  10.195887898763 0  C 10.6265811157227 0  10.9766006673177 0.32477650390625  10.9766006673177 0.7207540234375  L 10.9766006673177 9.259878046875  C 10.968873482154 9.66015440773216  10.6286596480085 9.98076297734355  10.211633509797 9.98076297734355  C 10.2068183803465 9.98076297734355  10.2020033581767 9.98071933972218  10.1971890869141 9.9806320703125  Z M 13.8405153401693 19.2629946484375  C 12.6087196060618 19.7434716693757  11.2912637940081 19.9891256952339  9.96167405192057 19.9862469726562  C 7.33932896306433 19.9956659269542  4.81557730718177 19.0274409650962  2.92224723307292 17.2856053515625  C 2.01791088695705 16.4523420677582  1.29287057314863 15.4566671879967  0.788298990885417 14.355121875  C -0.367663760937306 11.8210162463837  -0.235521466695321 8.91576935303514  1.14612567138672 6.4880354296875  C 1.88226323444944 5.20513265889897  2.91934668251235 4.10432738699618  4.17529123942057 3.27274794921875  C 4.52623772276247 3.04058167861474  5.00530482958053 3.11429841140508  5.26308435058594 3.44013275390625  C 5.35669384671092 3.56115957854504  5.40723729778568 3.70789840754719  5.40723729778568 3.8586406756944  C 5.40723729778568 4.09364257444011  5.28475156100458 4.31305734630395  5.08091805013021 4.44319251953125  C 4.02136327802525 5.1460473881579  3.14649710825207 6.07572187460289  2.52538490804036 7.158823828125  C 1.8918735168395 8.26287730288427  1.560993731516 9.50336755286089  1.56380700683594 10.763843125  C 1.56380700683594 12.8424128125  2.43820530192057 14.7960684570313  4.02565462239583 16.2650575976562  C 5.62071273016277 17.7377970377759  7.75123884954529 18.5552020525785  9.96427642822266 18.543489765625  C 12.1770274749678 18.5550089770548  14.3073296582472 17.7381379728264  15.9028982543945 16.2663067382813  C 17.4734777324417 14.8331837884919  18.3625015460063 12.8440282917607  18.3621434936523 10.763843125  C 18.3660388551463 9.50355195778762  18.0360401707543 8.26300765370065  17.40316796875 7.158823828125  C 16.7808493749656 6.07606178536472  15.9045936975884 5.1471862196545  14.843731262207 4.44569080078125  C 14.6403897108108 4.31547500829825  14.518264467994 4.09633753926968  14.518264467994 3.86168402305331  C 14.518264467994 3.71650961930585  14.5651471920234 3.5749055804836  14.652456624349 3.45637158203125  L 14.6654685058594 3.44138189453125  C 14.9227789581542 3.11571326210254  15.4014229988783 3.04197342467335  15.7519604492187 3.27399708984375  C 17.0075953994564 4.10502259489079  18.0442849775815 5.2054549896666  18.7798248291016 6.4880354296875  C 20.1632629458004 8.9152061106491  20.2959141658558 11.8210753186495  19.1389526977539 14.355121875  C 18.6348253843352 15.4572732298342  17.9097389124689 16.4534359379198  17.0050044555664 17.2868544921875  C 16.0909356386363 18.1330752710483  15.0168437846943 18.8038173613744  13.8405153401693 19.2629946484375  Z " fill-rule="nonzero" fill="#ffffff" stroke="none" transform="matrix(1 0 0 1 126 2 )" />
  </g>
</svg>